<svg width="34" height="34" viewBox="0 0 34 34" fill="none" xmlns="http://www.w3.org/2000/svg">
<path d="M24.0832 11.3334H28.3332L32.5832 17.0794V25.5H29.7003C29.5319 26.682 28.9427 27.7634 28.0409 28.5458C27.1392 29.3282 25.9854 29.7589 24.7916 29.7589C23.5977 29.7589 22.4439 29.3282 21.5422 28.5458C20.6404 27.7634 20.0512 26.682 19.8828 25.5H12.7003C12.5319 26.682 11.9427 27.7634 11.0409 28.5458C10.1392 29.3282 8.98542 29.7589 7.79156 29.7589C6.59771 29.7589 5.44395 29.3282 4.54219 28.5458C3.64043 27.7634 3.05123 26.682 2.88282 25.5H1.41656V8.50004C1.41656 8.12432 1.56582 7.76398 1.8315 7.49831C2.09717 7.23263 2.45751 7.08337 2.83323 7.08337H22.6666C23.0423 7.08337 23.4026 7.23263 23.6683 7.49831C23.934 7.76398 24.0832 8.12432 24.0832 8.50004V11.3334ZM24.0832 14.1667V18.4167H29.7499V18.013L26.9052 14.1667H24.0832Z" fill="#5BBC58"/>
</svg>
