<svg width="34" height="34" viewBox="0 0 34 34" fill="none" xmlns="http://www.w3.org/2000/svg">
<g clip-path="url(#clip0_6_342)">
<path d="M5.95729 21.7042L12.9734 28.7203C10.7257 29.6427 8.20506 29.6427 5.95729 28.7203C5.03493 26.4726 5.03493 23.952 5.95729 21.7042V21.7042ZM20.6798 26.0187L20.4113 30.2941L18.481 32.2244L2.45322 16.1967L4.38356 14.2663L8.65897 13.9978L14.474 8.18277C17.9631 4.69373 23.4406 4.23293 28.0425 6.63509C30.4447 11.2371 29.9839 16.7145 26.4949 20.2036L20.6798 26.0187ZM18.481 16.1967C19.0123 16.728 19.733 17.0265 20.4844 17.0265C21.2359 17.0265 21.9566 16.728 22.4879 16.1967C23.0193 15.6653 23.3178 14.9446 23.3178 14.1932C23.3178 13.4417 23.0193 12.7211 22.4879 12.1897C21.9566 11.6584 21.2359 11.3598 20.4844 11.3598C19.733 11.3598 19.0123 11.6584 18.481 12.1897C17.9496 12.7211 17.6511 13.4417 17.6511 14.1932C17.6511 14.9446 17.9496 15.6653 18.481 16.1967Z" fill="#5BBC58"/>
</g>
<defs>
<clipPath id="clip0_6_342">
<rect width="34" height="34" fill="white"/>
</clipPath>
</defs>
</svg>
