<svg width="34" height="34" viewBox="0 0 34 34" fill="none" xmlns="http://www.w3.org/2000/svg">
<g clip-path="url(#clip0_6_348)">
<path d="M9.04105 8.45474C9.04105 8.45459 9.04112 8.45445 9.04123 8.45436C11.299 6.64546 14.1069 5.66189 16.9999 5.6665C19.9139 5.6665 22.5996 6.64345 24.7473 8.28897C24.8686 8.38194 25.0405 8.37273 25.1486 8.26464L26.805 6.60822C26.9222 6.49106 27.1121 6.49106 27.2293 6.60822L28.8082 8.18712C28.9253 8.30428 28.9253 8.49423 28.8082 8.61139L27.1516 10.2679C27.0436 10.376 27.0343 10.5477 27.1271 10.6691C28.5293 12.5023 29.4087 14.6833 29.6689 16.98C29.9391 19.3656 29.5303 21.779 28.4894 23.9426C27.4486 26.1061 25.8181 27.9318 23.7854 29.2095C21.7528 30.4872 19.4007 31.1651 16.9999 31.1651C14.599 31.1651 12.2469 30.4872 10.2143 29.2095C8.1817 27.9318 6.55116 26.1061 5.51032 23.9426C4.46949 21.779 4.06067 19.3656 4.33091 16.98C4.59107 14.6834 5.47041 12.5024 6.87257 10.6692C6.96542 10.5478 6.95612 10.376 6.84803 10.2679L5.19175 8.6128C5.07452 8.49566 5.07449 8.30565 5.19167 8.18847L6.7705 6.60964C6.88766 6.49248 7.07761 6.49248 7.19477 6.60964L9.04022 8.45509C9.04052 8.45539 9.04105 8.45518 9.04105 8.45474ZM18.7165 16.9998C18.5509 16.9998 18.4165 16.8655 18.4165 16.6998V11.5003C18.4165 11.2138 18.0533 11.0903 17.8787 11.3175L11.7043 19.3503C11.5527 19.5476 11.6933 19.8332 11.9422 19.8332H15.2832C15.4489 19.8332 15.5832 19.9675 15.5832 20.1332V25.3261C15.5832 25.6126 15.9463 25.7361 16.121 25.509L22.2951 17.4828C22.4468 17.2855 22.3062 16.9998 22.0573 16.9998H18.7165ZM11.3332 1.7165C11.3332 1.55082 11.4675 1.4165 11.6332 1.4165H22.3665C22.5322 1.4165 22.6665 1.55082 22.6665 1.7165V3.94984C22.6665 4.11552 22.5322 4.24984 22.3665 4.24984H11.6332C11.4675 4.24984 11.3332 4.11552 11.3332 3.94984V1.7165Z" fill="#5BBC58"/>
</g>
<defs>
<clipPath id="clip0_6_348">
<rect x="-0.00012207" y="-0.00012207" width="34" height="34" rx="1" fill="white"/>
</clipPath>
</defs>
</svg>
